<svg width="256" height="256" xmlns="http://www.w3.org/2000/svg" xmlns:svg="http://www.w3.org/2000/svg" version="1.1"
	xml:space="preserve">
	<desc>Created with Fabric.js 1.7.22</desc>

	<g class="layer">
		<title>Layer 1</title>
		<g id="svg_1" transform="matrix(0.72 0 0 0.72 0 0)">
			<g fill="none" fill-rule="nonzero" id="svg_2" stroke-miterlimit="10" stroke-width="0"
				transform="translate(-175.05 -175.05) scale(3.89 3.89)">
				<path
					d="m121.65,135.7l-61.9,0c-7.75,0 -14.05,-6.3 -14.05,-14.05l0,-61.9c0,-7.75 6.3,-14.05 14.05,-14.05l61.9,0c7.75,0 14.05,6.3 14.05,14.05l0,61.9c0,7.75 -6.3,14.05 -14.05,14.05zm-61.9,-82c-3.34,0 -6.05,2.71 -6.05,6.05l0,61.9c0,3.33 2.71,6.05 6.05,6.05l61.9,0c3.33,0 6.05,-2.72 6.05,-6.05l0,-61.9c0,-3.34 -2.72,-6.05 -6.05,-6.05l-61.9,0z"
					fill="#172e52" fill-rule="nonzero" id="svg_3" stroke-miterlimit="10" />
				<path
					d="m115.19,75.13l-48.98,0c-2.21,0 -4,-1.79 -4,-4s1.79,-4 4,-4l48.98,0c2.21,0 4,1.79 4,4s-1.79,4 -4,4z"
					fill="#172e52" fill-rule="nonzero" id="svg_4" stroke-miterlimit="10" />
				<path
					d="m115.19,94.7l-48.98,0c-2.21,0 -4,-1.79 -4,-4s1.79,-4 4,-4l48.98,0c2.21,0 4,1.79 4,4s-1.79,4 -4,4z"
					fill="#172e52" fill-rule="nonzero" id="svg_5" stroke-miterlimit="10" />
				<path
					d="m115.19,114.27l-48.98,0c-2.21,0 -4,-1.79 -4,-4s1.79,-4 4,-4l48.98,0c2.21,0 4,1.79 4,4s-1.79,4 -4,4z"
					fill="#172e52" fill-rule="nonzero" id="svg_6" stroke-miterlimit="10" />
			</g>
		</g>
	</g>
</svg>