<svg width="256" height="256" xmlns="http://www.w3.org/2000/svg" xmlns:svg="http://www.w3.org/2000/svg" version="1.1"
	xml:space="preserve">
	<desc>Created with Fabric.js 1.7.22</desc>

	<g class="layer">
		<title>Layer 1</title>
		<g id="svg_1" transform="translate(128 128) matrix(0.72 0 0 0.72 0 0)">
			<g fill="none" fill-rule="nonzero" id="svg_2" stroke-miterlimit="10" stroke-width="0"
				transform="translate(-175.05 -175.05000000000004) scale(3.89 3.89)">
				<circle cx="45" cy="45" fill="#172e52" fill-rule="nonzero" id="svg_3" r="45" stroke-miterlimit="10"
					transform="  matrix(1 0 0 1 0 0) " />
				<path
					d="m57.33,70.09c-1.95,0 -4.07,-0.32 -6.32,-0.95c-6.3,-1.78 -12.9,-5.88 -18.58,-11.57c-5.69,-5.68 -9.79,-12.28 -11.57,-18.58c-1.84,-6.53 -0.98,-12 2.43,-15.41c0.12,-0.12 0.25,-0.24 0.38,-0.36c0.03,-0.04 0.07,-0.09 0.11,-0.13l1.82,-1.82c0.88,-0.87 2.04,-1.36 3.28,-1.36c1.24,0 2.41,0.49 3.28,1.36l6.98,6.98c1.81,1.81 1.81,4.75 0,6.56l-2.99,2.99c-0.75,0.75 -0.75,1.98 0,2.73l13.32,13.32c0.73,0.73 2,0.73 2.73,0l2.99,-2.99c1.81,-1.81 4.75,-1.81 6.56,0l6.98,6.98c0.88,0.87 1.36,2.04 1.36,3.28s-0.49,2.4 -1.36,3.28l-1.82,1.82c-0.04,0.04 -0.09,0.08 -0.13,0.11c-0.12,0.13 -0.24,0.26 -0.36,0.38c-2.24,2.24 -5.36,3.38 -9.09,3.38z"
					fill="rgb(255,255,255)" fill-rule="nonzero" id="svg_4" stroke-miterlimit="10"
					transform=" matrix(1 0 0 1 0 0) " />
			</g>
		</g>
	</g>
</svg>